<svg width="1920" height="241" viewBox="0 0 1920 241" fill="none" xmlns="http://www.w3.org/2000/svg">
<g clip-path="url(#clip0_10_2)" filter="url(#filter0_d_10_2)">
<path d="M358.42 32.5946L372.326 67.4771C374.309 72.452 381.321 72.5333 383.419 67.6057L385.216 63.387C385.834 61.9342 385.855 60.2963 385.274 58.8282L373.885 30.056C373.303 28.5857 372.164 27.4046 370.716 26.7695L366.403 24.878C361.488 22.7226 356.432 27.6097 358.42 32.5946Z" fill="url(#paint0_linear_10_2)"/>
<path d="M391.7 44.7724L390.403 41.4678C389.346 38.7754 392.074 36.1506 394.724 37.3107C395.539 37.6675 396.471 37.6714 397.291 37.3262C400.047 36.1655 402.868 38.9026 401.738 41.6719L400.448 44.8316C398.841 48.7683 393.253 48.7305 391.7 44.7724Z" fill="url(#paint1_linear_10_2)"/>
<path d="M425.597 24.8779L421.284 26.7695C419.836 27.4046 418.697 28.5857 418.115 30.056L406.726 58.8282C406.145 60.2963 406.166 61.9342 406.784 63.387L408.581 67.6057C410.679 72.5333 417.691 72.452 419.674 67.4771L433.58 32.5946C435.568 27.6097 430.512 22.7226 425.597 24.8779Z" fill="url(#paint2_linear_10_2)"/>
<path d="M1044.61 51.096H1046.75C1046.82 51.576 1047.01 51.9973 1047.34 52.36C1047.69 52.7227 1048.13 53.0053 1048.69 53.208C1049.24 53.4 1049.88 53.496 1050.61 53.496C1051.69 53.496 1052.54 53.3307 1053.17 53C1053.8 52.6587 1054.11 52.2 1054.11 51.624C1054.11 51.1547 1053.93 50.8027 1053.57 50.568C1053.21 50.3333 1052.55 50.1573 1051.6 50.04L1049.01 49.704C1047.56 49.512 1046.5 49.1547 1045.84 48.632C1045.19 48.0987 1044.86 47.3467 1044.86 46.376C1044.86 45.64 1045.08 45.0053 1045.52 44.472C1045.97 43.928 1046.6 43.512 1047.41 43.224C1048.22 42.9253 1049.17 42.776 1050.26 42.776C1051.33 42.776 1052.29 42.936 1053.12 43.256C1053.95 43.576 1054.61 44.024 1055.1 44.6C1055.61 45.1653 1055.88 45.832 1055.92 46.6H1053.78C1053.72 46.1733 1053.54 45.8053 1053.23 45.496C1052.93 45.1867 1052.53 44.9467 1052.02 44.776C1051.5 44.5947 1050.9 44.504 1050.21 44.504C1049.23 44.504 1048.44 44.664 1047.86 44.984C1047.27 45.304 1046.98 45.7413 1046.98 46.296C1046.98 46.7227 1047.15 47.0533 1047.49 47.288C1047.84 47.512 1048.45 47.6827 1049.31 47.8L1051.94 48.168C1053.01 48.3173 1053.86 48.52 1054.48 48.776C1055.11 49.0213 1055.56 49.3573 1055.82 49.784C1056.09 50.2 1056.22 50.7387 1056.22 51.4C1056.22 52.168 1055.99 52.84 1055.52 53.416C1055.05 53.992 1054.39 54.44 1053.54 54.76C1052.69 55.0693 1051.71 55.224 1050.58 55.224C1049.42 55.224 1048.41 55.0533 1047.52 54.712C1046.65 54.36 1045.95 53.8747 1045.44 53.256C1044.93 52.6373 1044.65 51.9173 1044.61 51.096ZM1064.99 55.224C1063.62 55.224 1062.42 54.9627 1061.39 54.44C1060.35 53.9173 1059.55 53.192 1058.97 52.264C1058.4 51.3253 1058.11 50.2373 1058.11 49C1058.11 47.7627 1058.4 46.68 1058.97 45.752C1059.55 44.8133 1060.35 44.0827 1061.39 43.56C1062.42 43.0373 1063.62 42.776 1064.99 42.776C1066.35 42.776 1067.55 43.0373 1068.59 43.56C1069.62 44.0827 1070.43 44.8133 1071 45.752C1071.58 46.68 1071.87 47.7627 1071.87 49C1071.87 50.2373 1071.58 51.3253 1071 52.264C1070.43 53.192 1069.62 53.9173 1068.59 54.44C1067.55 54.9627 1066.35 55.224 1064.99 55.224ZM1064.99 53.336C1065.96 53.336 1066.8 53.16 1067.5 52.808C1068.2 52.456 1068.75 51.9547 1069.13 51.304C1069.53 50.6533 1069.72 49.8853 1069.72 49C1069.72 48.1147 1069.53 47.3467 1069.13 46.696C1068.75 46.0453 1068.2 45.544 1067.5 45.192C1066.8 44.84 1065.96 44.664 1064.99 44.664C1064.03 44.664 1063.19 44.84 1062.48 45.192C1061.77 45.544 1061.22 46.0453 1060.83 46.696C1060.44 47.3467 1060.25 48.1147 1060.25 49C1060.25 49.8853 1060.44 50.6533 1060.83 51.304C1061.22 51.9547 1061.77 52.456 1062.48 52.808C1063.19 53.16 1064.03 53.336 1064.99 53.336ZM1081.65 49.048L1081.86 48.584C1082.81 48.5947 1083.58 48.7387 1084.18 49.016C1084.79 49.2933 1085.23 49.6667 1085.51 50.136C1085.79 50.6053 1085.94 51.1333 1085.94 51.72C1085.94 52.36 1085.78 52.9253 1085.47 53.416C1085.18 53.9067 1084.73 54.296 1084.15 54.584C1083.56 54.8613 1082.83 55 1081.95 55H1073.95L1074.9 48.84L1073.95 43H1081.67C1082.78 43 1083.63 43.2613 1084.23 43.784C1084.83 44.296 1085.14 45.0053 1085.14 45.912C1085.14 46.392 1085.02 46.8613 1084.79 47.32C1084.56 47.768 1084.19 48.152 1083.68 48.472C1083.18 48.7813 1082.5 48.9733 1081.65 49.048ZM1076.08 54.408L1075.27 53.304H1081.71C1082.38 53.304 1082.89 53.1547 1083.25 52.856C1083.62 52.5467 1083.81 52.1093 1083.81 51.544C1083.81 50.9467 1083.59 50.4827 1083.15 50.152C1082.73 49.8213 1082.09 49.656 1081.25 49.656H1076.05V48.024H1081.04C1081.61 48.024 1082.08 47.8693 1082.45 47.56C1082.82 47.24 1083.01 46.7867 1083.01 46.2C1083.01 45.7627 1082.86 45.4053 1082.55 45.128C1082.24 44.84 1081.79 44.696 1081.2 44.696H1075.27L1076.08 43.592L1076.93 48.84L1076.08 54.408ZM1089.95 48.408H1094.83C1095.53 48.408 1096.09 48.248 1096.49 47.928C1096.91 47.608 1097.12 47.1707 1097.12 46.616C1097.12 46.0507 1096.91 45.6133 1096.49 45.304C1096.09 44.984 1095.53 44.824 1094.83 44.824H1089.65L1090.59 43.64V55H1088.48V43H1095.02C1095.86 43 1096.6 43.1547 1097.23 43.464C1097.87 43.7627 1098.37 44.184 1098.72 44.728C1099.08 45.2613 1099.26 45.8907 1099.26 46.616C1099.26 47.32 1099.08 47.944 1098.72 48.488C1098.37 49.0213 1097.87 49.4427 1097.23 49.752C1096.6 50.0507 1095.86 50.2 1095.02 50.2H1089.95V48.408ZM1092.32 49.384H1094.8L1099.57 55H1097.04L1092.32 49.384ZM1111.59 48.12V49.88H1103.21V48.12H1111.59ZM1104.6 49L1103.75 54.36L1102.74 53.176H1112.05V55H1101.59L1102.55 49L1101.59 43H1111.97V44.824H1102.74L1103.75 43.64L1104.6 49Z" fill="white"/>
<path d="M1164.46 43V54.056L1163.51 53.144H1172.55V55H1162.34V43H1164.46ZM1174.72 43H1176.83V55H1174.72V43ZM1186.35 54.104H1185.35L1190.52 43H1192.78L1186.99 55H1184.63L1178.84 43H1181.11L1186.35 54.104ZM1196.26 48.408H1201.14C1201.85 48.408 1202.4 48.248 1202.81 47.928C1203.22 47.608 1203.43 47.1707 1203.43 46.616C1203.43 46.0507 1203.22 45.6133 1202.81 45.304C1202.4 44.984 1201.85 44.824 1201.14 44.824H1195.96L1196.9 43.64V55H1194.79V43H1201.33C1202.18 43 1202.91 43.1547 1203.54 43.464C1204.18 43.7627 1204.68 44.184 1205.03 44.728C1205.39 45.2613 1205.57 45.8907 1205.57 46.616C1205.57 47.32 1205.39 47.944 1205.03 48.488C1204.68 49.0213 1204.18 49.4427 1203.54 49.752C1202.91 50.0507 1202.18 50.2 1201.33 50.2H1196.26V48.408ZM1198.63 49.384H1201.11L1205.88 55H1203.35L1198.63 49.384ZM1214.46 55.224C1213.1 55.224 1211.9 54.9627 1210.86 54.44C1209.83 53.9173 1209.02 53.192 1208.45 52.264C1207.87 51.3253 1207.58 50.2373 1207.58 49C1207.58 47.7627 1207.87 46.68 1208.45 45.752C1209.02 44.8133 1209.83 44.0827 1210.86 43.56C1211.9 43.0373 1213.1 42.776 1214.46 42.776C1215.83 42.776 1217.03 43.0373 1218.06 43.56C1219.1 44.0827 1219.9 44.8133 1220.48 45.752C1221.06 46.68 1221.34 47.7627 1221.34 49C1221.34 50.2373 1221.06 51.3253 1220.48 52.264C1219.9 53.192 1219.1 53.9173 1218.06 54.44C1217.03 54.9627 1215.83 55.224 1214.46 55.224ZM1214.46 53.336C1215.44 53.336 1216.27 53.16 1216.98 52.808C1217.68 52.456 1218.22 51.9547 1218.61 51.304C1219 50.6533 1219.2 49.8853 1219.2 49C1219.2 48.1147 1219 47.3467 1218.61 46.696C1218.22 46.0453 1217.68 45.544 1216.98 45.192C1216.27 44.84 1215.44 44.664 1214.46 44.664C1213.5 44.664 1212.67 44.84 1211.95 45.192C1211.25 45.544 1210.7 46.0453 1210.3 46.696C1209.92 47.3467 1209.73 48.1147 1209.73 49C1209.73 49.8853 1209.92 50.6533 1210.3 51.304C1210.7 51.9547 1211.25 52.456 1211.95 52.808C1212.67 53.16 1213.5 53.336 1214.46 53.336ZM1223.22 51.096H1225.36C1225.43 51.576 1225.63 51.9973 1225.96 52.36C1226.3 52.7227 1226.75 53.0053 1227.3 53.208C1227.86 53.4 1228.5 53.496 1229.22 53.496C1230.3 53.496 1231.15 53.3307 1231.78 53C1232.41 52.6587 1232.72 52.2 1232.72 51.624C1232.72 51.1547 1232.54 50.8027 1232.18 50.568C1231.82 50.3333 1231.16 50.1573 1230.21 50.04L1227.62 49.704C1226.17 49.512 1225.11 49.1547 1224.45 48.632C1223.8 48.0987 1223.48 47.3467 1223.48 46.376C1223.48 45.64 1223.7 45.0053 1224.13 44.472C1224.58 43.928 1225.21 43.512 1226.02 43.224C1226.83 42.9253 1227.78 42.776 1228.87 42.776C1229.95 42.776 1230.9 42.936 1231.73 43.256C1232.56 43.576 1233.23 44.024 1233.72 44.6C1234.22 45.1653 1234.49 45.832 1234.53 46.6H1232.39C1232.34 46.1733 1232.15 45.8053 1231.84 45.496C1231.55 45.1867 1231.14 44.9467 1230.63 44.776C1230.12 44.5947 1229.51 44.504 1228.82 44.504C1227.84 44.504 1227.06 44.664 1226.47 44.984C1225.88 45.304 1225.59 45.7413 1225.59 46.296C1225.59 46.7227 1225.76 47.0533 1226.1 47.288C1226.45 47.512 1227.06 47.6827 1227.92 47.8L1230.55 48.168C1231.63 48.3173 1232.47 48.52 1233.09 48.776C1233.72 49.0213 1234.17 49.3573 1234.44 49.784C1234.7 50.2 1234.84 50.7387 1234.84 51.4C1234.84 52.168 1234.6 52.84 1234.13 53.416C1233.66 53.992 1233 54.44 1232.15 54.76C1231.31 55.0693 1230.32 55.224 1229.19 55.224C1228.04 55.224 1227.02 55.0533 1226.13 54.712C1225.26 54.36 1224.56 53.8747 1224.05 53.256C1223.54 52.6373 1223.26 51.9173 1223.22 51.096Z" fill="white"/>
<path d="M1468 50.248C1467.89 51.2293 1467.55 52.0987 1466.96 52.856C1466.38 53.6027 1465.63 54.184 1464.69 54.6C1463.75 55.016 1462.68 55.224 1461.47 55.224C1460.13 55.224 1458.95 54.9627 1457.94 54.44C1456.92 53.9173 1456.13 53.192 1455.57 52.264C1455 51.3253 1454.72 50.2373 1454.72 49C1454.72 47.7627 1455 46.68 1455.57 45.752C1456.13 44.8133 1456.92 44.0827 1457.94 43.56C1458.95 43.0373 1460.13 42.776 1461.47 42.776C1462.68 42.776 1463.75 42.984 1464.69 43.4C1465.63 43.816 1466.38 44.3973 1466.96 45.144C1467.55 45.8907 1467.89 46.76 1468 47.752H1465.87C1465.75 47.112 1465.5 46.5627 1465.1 46.104C1464.72 45.6453 1464.22 45.2933 1463.6 45.048C1462.98 44.792 1462.27 44.664 1461.46 44.664C1460.52 44.664 1459.7 44.84 1459.01 45.192C1458.33 45.544 1457.8 46.0453 1457.42 46.696C1457.05 47.3467 1456.86 48.1147 1456.86 49C1456.86 49.8853 1457.05 50.6533 1457.42 51.304C1457.8 51.9547 1458.33 52.456 1459.01 52.808C1459.7 53.16 1460.52 53.336 1461.46 53.336C1462.27 53.336 1462.98 53.2133 1463.6 52.968C1464.22 52.7227 1464.72 52.3707 1465.1 51.912C1465.5 51.4427 1465.75 50.888 1465.87 50.248H1468ZM1476.74 55.224C1475.37 55.224 1474.17 54.9627 1473.14 54.44C1472.1 53.9173 1471.3 53.192 1470.72 52.264C1470.15 51.3253 1469.86 50.2373 1469.86 49C1469.86 47.7627 1470.15 46.68 1470.72 45.752C1471.3 44.8133 1472.1 44.0827 1473.14 43.56C1474.17 43.0373 1475.37 42.776 1476.74 42.776C1478.1 42.776 1479.3 43.0373 1480.34 43.56C1481.37 44.0827 1482.18 44.8133 1482.75 45.752C1483.33 46.68 1483.62 47.7627 1483.62 49C1483.62 50.2373 1483.33 51.3253 1482.75 52.264C1482.18 53.192 1481.37 53.9173 1480.34 54.44C1479.3 54.9627 1478.1 55.224 1476.74 55.224ZM1476.74 53.336C1477.71 53.336 1478.55 53.16 1479.25 52.808C1479.95 52.456 1480.5 51.9547 1480.88 51.304C1481.28 50.6533 1481.47 49.8853 1481.47 49C1481.47 48.1147 1481.28 47.3467 1480.88 46.696C1480.5 46.0453 1479.95 45.544 1479.25 45.192C1478.55 44.84 1477.71 44.664 1476.74 44.664C1475.78 44.664 1474.94 44.84 1474.23 45.192C1473.52 45.544 1472.97 46.0453 1472.58 46.696C1472.19 47.3467 1472 48.1147 1472 49C1472 49.8853 1472.19 50.6533 1472.58 51.304C1472.97 51.9547 1473.52 52.456 1474.23 52.808C1474.94 53.16 1475.78 53.336 1476.74 53.336ZM1497.35 53.72L1496.49 53.816V43H1498.53V55H1495.85L1487.43 44.184L1488.28 44.088V55H1486.23V43H1488.98L1497.35 53.72ZM1505.65 43.976H1507.76V55H1505.65V43.976ZM1500.69 43H1512.72V44.856H1500.69V43ZM1514.39 52.248V50.504H1522.77V52.248H1514.39ZM1519.96 43L1525.72 55H1523.46L1518.23 43.8H1519.04L1513.81 55H1511.56L1517.32 43H1519.96ZM1529.52 43.976H1531.63V55H1529.52V43.976ZM1524.56 43H1536.59V44.856H1524.56V43ZM1544.37 55.224C1543 55.224 1541.8 54.9627 1540.77 54.44C1539.73 53.9173 1538.93 53.192 1538.35 52.264C1537.77 51.3253 1537.49 50.2373 1537.49 49C1537.49 47.7627 1537.77 46.68 1538.35 45.752C1538.93 44.8133 1539.73 44.0827 1540.77 43.56C1541.8 43.0373 1543 42.776 1544.37 42.776C1545.73 42.776 1546.93 43.0373 1547.97 43.56C1549 44.0827 1549.81 44.8133 1550.38 45.752C1550.96 46.68 1551.25 47.7627 1551.25 49C1551.25 50.2373 1550.96 51.3253 1550.38 52.264C1549.81 53.192 1549 53.9173 1547.97 54.44C1546.93 54.9627 1545.73 55.224 1544.37 55.224ZM1544.37 53.336C1545.34 53.336 1546.17 53.16 1546.88 52.808C1547.58 52.456 1548.13 51.9547 1548.51 51.304C1548.9 50.6533 1549.1 49.8853 1549.1 49C1549.1 48.1147 1548.9 47.3467 1548.51 46.696C1548.13 46.0453 1547.58 45.544 1546.88 45.192C1546.17 44.84 1545.34 44.664 1544.37 44.664C1543.41 44.664 1542.57 44.84 1541.85 45.192C1541.15 45.544 1540.6 46.0453 1540.21 46.696C1539.82 47.3467 1539.63 48.1147 1539.63 49C1539.63 49.8853 1539.82 50.6533 1540.21 51.304C1540.6 51.9547 1541.15 52.456 1541.85 52.808C1542.57 53.16 1543.41 53.336 1544.37 53.336Z" fill="white"/>
<path d="M1291.7 43C1292.59 43 1293.37 43.16 1294.02 43.48C1294.68 43.8 1295.18 44.248 1295.54 44.824C1295.9 45.3893 1296.08 46.0453 1296.08 46.792C1296.08 47.5387 1295.9 48.2 1295.54 48.776C1295.18 49.3413 1294.68 49.784 1294.02 50.104C1293.37 50.424 1292.59 50.584 1291.7 50.584H1286.3V48.76H1291.62C1292.34 48.76 1292.91 48.584 1293.31 48.232C1293.73 47.88 1293.94 47.4 1293.94 46.792C1293.94 46.184 1293.73 45.704 1293.31 45.352C1292.91 45 1292.34 44.824 1291.62 44.824H1286.51L1287.46 43.768V55H1285.34V43H1291.7ZM1304.61 55.224C1303.25 55.224 1302.05 54.9627 1301.01 54.44C1299.98 53.9173 1299.17 53.192 1298.6 52.264C1298.02 51.3253 1297.73 50.2373 1297.73 49C1297.73 47.7627 1298.02 46.68 1298.6 45.752C1299.17 44.8133 1299.98 44.0827 1301.01 43.56C1302.05 43.0373 1303.25 42.776 1304.61 42.776C1305.98 42.776 1307.18 43.0373 1308.21 43.56C1309.25 44.0827 1310.05 44.8133 1310.63 45.752C1311.2 46.68 1311.49 47.7627 1311.49 49C1311.49 50.2373 1311.2 51.3253 1310.63 52.264C1310.05 53.192 1309.25 53.9173 1308.21 54.44C1307.18 54.9627 1305.98 55.224 1304.61 55.224ZM1304.61 53.336C1305.58 53.336 1306.42 53.16 1307.12 52.808C1307.83 52.456 1308.37 51.9547 1308.76 51.304C1309.15 50.6533 1309.35 49.8853 1309.35 49C1309.35 48.1147 1309.15 47.3467 1308.76 46.696C1308.37 46.0453 1307.83 45.544 1307.12 45.192C1306.42 44.84 1305.58 44.664 1304.61 44.664C1303.65 44.664 1302.82 44.84 1302.1 45.192C1301.4 45.544 1300.85 46.0453 1300.45 46.696C1300.07 47.3467 1299.88 48.1147 1299.88 49C1299.88 49.8853 1300.07 50.6533 1300.45 51.304C1300.85 51.9547 1301.4 52.456 1302.1 52.808C1302.82 53.16 1303.65 53.336 1304.61 53.336ZM1315.58 48.408H1320.46C1321.16 48.408 1321.72 48.248 1322.12 47.928C1322.54 47.608 1322.74 47.1707 1322.74 46.616C1322.74 46.0507 1322.54 45.6133 1322.12 45.304C1321.72 44.984 1321.16 44.824 1320.46 44.824H1315.27L1316.22 43.64V55H1314.1V43H1320.65C1321.49 43 1322.23 43.1547 1322.86 43.464C1323.5 43.7627 1323.99 44.184 1324.34 44.728C1324.71 45.2613 1324.89 45.8907 1324.89 46.616C1324.89 47.32 1324.71 47.944 1324.34 48.488C1323.99 49.0213 1323.5 49.4427 1322.86 49.752C1322.23 50.0507 1321.49 50.2 1320.65 50.2H1315.58V48.408ZM1317.94 49.384H1320.42L1325.19 55H1322.66L1317.94 49.384ZM1331.08 43.976H1333.2V55H1331.08V43.976ZM1326.12 43H1338.16V44.856H1326.12V43ZM1340.32 43H1342.43V55H1340.32V43ZM1346.7 48.248H1355.32V50.104H1346.7V48.248ZM1355.58 43V44.856H1346.64L1347.79 43.656V55H1345.68V43H1355.58ZM1364.18 55.224C1362.81 55.224 1361.61 54.9627 1360.58 54.44C1359.54 53.9173 1358.74 53.192 1358.16 52.264C1357.59 51.3253 1357.3 50.2373 1357.3 49C1357.3 47.7627 1357.59 46.68 1358.16 45.752C1358.74 44.8133 1359.54 44.0827 1360.58 43.56C1361.61 43.0373 1362.81 42.776 1364.18 42.776C1365.54 42.776 1366.74 43.0373 1367.78 43.56C1368.81 44.0827 1369.62 44.8133 1370.19 45.752C1370.77 46.68 1371.06 47.7627 1371.06 49C1371.06 50.2373 1370.77 51.3253 1370.19 52.264C1369.62 53.192 1368.81 53.9173 1367.78 54.44C1366.74 54.9627 1365.54 55.224 1364.18 55.224ZM1364.18 53.336C1365.15 53.336 1365.99 53.16 1366.69 52.808C1367.39 52.456 1367.94 51.9547 1368.32 51.304C1368.72 50.6533 1368.91 49.8853 1368.91 49C1368.91 48.1147 1368.72 47.3467 1368.32 46.696C1367.94 46.0453 1367.39 45.544 1366.69 45.192C1365.99 44.84 1365.15 44.664 1364.18 44.664C1363.22 44.664 1362.38 44.84 1361.67 45.192C1360.96 45.544 1360.41 46.0453 1360.02 46.696C1359.63 47.3467 1359.44 48.1147 1359.44 49C1359.44 49.8853 1359.63 50.6533 1360.02 51.304C1360.41 51.9547 1360.96 52.456 1361.67 52.808C1362.38 53.16 1363.22 53.336 1364.18 53.336ZM1365.06 39.592H1367.52L1364.9 42.024H1362.72L1365.06 39.592ZM1375.78 43V54.056L1374.84 53.144H1383.88V55H1373.67V43H1375.78ZM1386.04 43H1388.15V55H1386.04V43ZM1397.64 55.224C1396.27 55.224 1395.07 54.9627 1394.04 54.44C1393 53.9173 1392.2 53.192 1391.62 52.264C1391.05 51.3253 1390.76 50.2373 1390.76 49C1390.76 47.7627 1391.05 46.68 1391.62 45.752C1392.2 44.8133 1393 44.0827 1394.04 43.56C1395.07 43.0373 1396.27 42.776 1397.64 42.776C1399 42.776 1400.2 43.0373 1401.24 43.56C1402.27 44.0827 1403.08 44.8133 1403.66 45.752C1404.23 46.68 1404.52 47.7627 1404.52 49C1404.52 50.2373 1404.23 51.3253 1403.66 52.264C1403.08 53.192 1402.27 53.9173 1401.24 54.44C1400.2 54.9627 1399 55.224 1397.64 55.224ZM1397.64 53.336C1398.61 53.336 1399.45 53.16 1400.15 52.808C1400.86 52.456 1401.4 51.9547 1401.78 51.304C1402.18 50.6533 1402.38 49.8853 1402.38 49C1402.38 48.1147 1402.18 47.3467 1401.78 46.696C1401.4 46.0453 1400.86 45.544 1400.15 45.192C1399.45 44.84 1398.61 44.664 1397.64 44.664C1396.68 44.664 1395.84 44.84 1395.13 45.192C1394.42 45.544 1393.87 46.0453 1393.48 46.696C1393.1 47.3467 1392.9 48.1147 1392.9 49C1392.9 49.8853 1393.1 50.6533 1393.48 51.304C1393.87 51.9547 1394.42 52.456 1395.13 52.808C1395.84 53.16 1396.68 53.336 1397.64 53.336Z" fill="white"/>
</g>
<defs>
<filter id="filter0_d_10_2" x="-141" y="-137" width="2202" height="378" filterUnits="userSpaceOnUse" color-interpolation-filters="sRGB">
<feFlood flood-opacity="0" result="BackgroundImageFix"/>
<feColorMatrix in="SourceAlpha" type="matrix" values="0 0 0 0 0 0 0 0 0 0 0 0 0 0 0 0 0 0 127 0" result="hardAlpha"/>
<feOffset dy="4"/>
<feGaussianBlur stdDeviation="70.5"/>
<feComposite in2="hardAlpha" operator="out"/>
<feColorMatrix type="matrix" values="0 0 0 0 0 0 0 0 0 0 0 0 0 0 0 0 0 0 1 0"/>
<feBlend mode="normal" in2="BackgroundImageFix" result="effect1_dropShadow_10_2"/>
<feBlend mode="normal" in="SourceGraphic" in2="effect1_dropShadow_10_2" result="shape"/>
</filter>
<linearGradient id="paint0_linear_10_2" x1="396" y1="19" x2="396" y2="81" gradientUnits="userSpaceOnUse">
<stop stop-color="white"/>
<stop offset="1" stop-color="#D9D9D9" stop-opacity="0"/>
</linearGradient>
<linearGradient id="paint1_linear_10_2" x1="396" y1="19" x2="396" y2="81" gradientUnits="userSpaceOnUse">
<stop stop-color="white"/>
<stop offset="1" stop-color="#D9D9D9" stop-opacity="0"/>
</linearGradient>
<linearGradient id="paint2_linear_10_2" x1="396" y1="19" x2="396" y2="81" gradientUnits="userSpaceOnUse">
<stop stop-color="white"/>
<stop offset="1" stop-color="#D9D9D9" stop-opacity="0"/>
</linearGradient>
<clipPath id="clip0_10_2">
<rect width="1920" height="96" fill="white"/>
</clipPath>
</defs>
</svg>
