<svg width="1920" height="3041" viewBox="0 0 1920 3041" fill="none" xmlns="http://www.w3.org/2000/svg">
<ellipse cx="1844.67" cy="443.688" rx="2.281" ry="1.72531" transform="rotate(90 1844.67 443.688)" fill="#6F6F6F"/>
<ellipse cx="927.378" cy="23.9846" rx="2.281" ry="2.30041" transform="rotate(90 927.378 23.9846)" fill="#6F6F6F"/>
<ellipse cx="2.21631" cy="1.7809" rx="2.21631" ry="1.7809" transform="matrix(0.250135 0.968211 -0.911387 0.41155 559.116 868.957)" fill="#6F6F6F"/>
<ellipse cx="872.168" cy="173.77" rx="1.52066" ry="2.30041" transform="rotate(90 872.168 173.77)" fill="#6F6F6F"/>
<ellipse cx="343.649" cy="727.292" rx="3.04133" ry="1.72531" transform="rotate(90 343.649 727.292)" fill="#6F6F6F"/>
<ellipse cx="3.32446" cy="3.5618" rx="3.32446" ry="3.5618" transform="matrix(0.250135 0.968211 -0.911387 0.41155 1009.51 809.345)" fill="#6F6F6F"/>
<ellipse cx="2.95794" cy="4.09634" rx="2.95794" ry="4.09634" transform="matrix(-0.656444 0.754375 -0.549367 -0.835581 798.288 2964.95)" fill="#6F6F6F"/>
<ellipse cx="2.75138" cy="4.34472" rx="2.75138" ry="4.34472" transform="matrix(-0.840449 0.541891 -0.346084 -0.938204 1138.53 2763.99)" fill="#6F6F6F"/>
<ellipse cx="0.313056" cy="1968.91" rx="3.80166" ry="3.45062" transform="rotate(90 0.313056 1968.91)" fill="#6F6F6F"/>
<ellipse cx="1619.8" cy="2839.49" rx="3.04133" ry="3.45062" transform="rotate(90 1619.8 2839.49)" fill="#6F6F6F"/>
<ellipse cx="540.91" cy="1442.76" rx="3.80166" ry="3.45062" transform="rotate(90 540.91 1442.76)" fill="#6F6F6F"/>
<ellipse cx="2.25011" cy="1.73799" rx="2.25011" ry="1.73799" transform="matrix(-0.14432 0.989531 -0.969009 -0.247025 1668.42 148.496)" fill="#6F6F6F"/>
<ellipse cx="2.25011" cy="1.73799" rx="2.25011" ry="1.73799" transform="matrix(-0.14432 0.989531 -0.969009 -0.247025 1762.94 985.481)" fill="#6F6F6F"/>
<ellipse cx="683.535" cy="2001.61" rx="3.04133" ry="1.15021" transform="rotate(90 683.535 2001.61)" fill="#6F6F6F"/>
<ellipse cx="748.521" cy="128.15" rx="3.04133" ry="1.72531" transform="rotate(90 748.521 128.15)" fill="#6F6F6F"/>
<ellipse cx="1185.6" cy="600.316" rx="2.281" ry="2.87551" transform="rotate(90 1185.6 600.316)" fill="#6F6F6F"/>
<ellipse cx="1736.55" cy="2550.57" rx="1.52066" ry="2.87551" transform="rotate(90 1736.55 2550.57)" fill="#6F6F6F"/>
<ellipse cx="2.21631" cy="2.67135" rx="2.21631" ry="2.67135" transform="matrix(0.250135 0.968211 -0.911387 0.41155 683.21 1237.05)" fill="#6F6F6F"/>
<ellipse cx="334.448" cy="2754.34" rx="1.52066" ry="1.72531" transform="rotate(90 334.448 2754.34)" fill="#6F6F6F"/>
<ellipse cx="1.97196" cy="3.07225" rx="1.97196" ry="3.07225" transform="matrix(-0.656444 0.754375 -0.549367 -0.835581 1002.2 2718.6)" fill="#6F6F6F"/>
<ellipse cx="2.14286" cy="2.80295" rx="2.14286" ry="2.80295" transform="matrix(-0.400202 0.916427 -0.794895 -0.606746 1117.81 2383.05)" fill="#6F6F6F"/>
<ellipse cx="2.25011" cy="1.73799" rx="2.25011" ry="1.73799" transform="matrix(-0.14432 0.989531 -0.969009 -0.247025 1577.14 834.196)" fill="#6F6F6F"/>
<ellipse cx="479.374" cy="1898.96" rx="2.281" ry="1.72531" transform="rotate(90 479.374 1898.96)" fill="#6F6F6F"/>
<ellipse cx="1784.28" cy="2226.67" rx="1.52066" ry="1.15021" transform="rotate(90 1784.28 2226.67)" fill="#6F6F6F"/>
<ellipse cx="2.25011" cy="1.73799" rx="2.25011" ry="1.73799" transform="matrix(-0.14432 0.989531 -0.969009 -0.247025 1702.1 157.083)" fill="#6F6F6F"/>
<ellipse cx="2.25011" cy="1.73799" rx="2.25011" ry="1.73799" transform="matrix(-0.14432 0.989531 -0.969009 -0.247025 1799.99 994.926)" fill="#6F6F6F"/>
<ellipse cx="721.492" cy="2001.61" rx="3.04133" ry="1.15021" transform="rotate(90 721.492 2001.61)" fill="#6F6F6F"/>
<ellipse cx="786.478" cy="128.15" rx="3.04133" ry="1.72531" transform="rotate(90 786.478 128.15)" fill="#6F6F6F"/>
<ellipse cx="2.25011" cy="1.73799" rx="2.25011" ry="1.73799" transform="matrix(-0.14432 0.989531 -0.969009 -0.247025 1288.65 536.647)" fill="#6F6F6F"/>
<ellipse cx="1773.35" cy="2550.57" rx="1.52066" ry="1.72531" transform="rotate(90 1773.35 2550.57)" fill="#6F6F6F"/>
<ellipse cx="2.21631" cy="1.7809" rx="2.21631" ry="1.7809" transform="matrix(0.250135 0.968211 -0.911387 0.41155 717.295 1221.65)" fill="#6F6F6F"/>
<ellipse cx="371.254" cy="2754.34" rx="1.52066" ry="1.72531" transform="rotate(90 371.254 2754.34)" fill="#6F6F6F"/>
<ellipse cx="1.97196" cy="2.04817" rx="1.97196" ry="2.04817" transform="matrix(-0.656444 0.754375 -0.549367 -0.835581 1025.83 2754.54)" fill="#6F6F6F"/>
<ellipse cx="1.83425" cy="2.17236" rx="1.83425" ry="2.17236" transform="matrix(-0.840449 0.541891 -0.346084 -0.938204 1399.51 2638.61)" fill="#6F6F6F"/>
<ellipse cx="2.25011" cy="1.73799" rx="2.25011" ry="1.73799" transform="matrix(-0.14432 0.989531 -0.969009 -0.247025 1671.13 153.808)" fill="#6F6F6F"/>
<ellipse cx="2.25011" cy="1.73799" rx="2.25011" ry="1.73799" transform="matrix(-0.14432 0.989531 -0.969009 -0.247025 1765.66 990.793)" fill="#6F6F6F"/>
<ellipse cx="686.986" cy="2006.17" rx="1.52066" ry="2.30041" transform="rotate(90 686.986 2006.17)" fill="#6F6F6F"/>
<ellipse cx="751.972" cy="132.712" rx="1.52066" ry="1.72531" transform="rotate(90 751.972 132.712)" fill="#6F6F6F"/>
<ellipse cx="1190.2" cy="604.118" rx="1.52066" ry="1.72531" transform="rotate(90 1190.2 604.118)" fill="#6F6F6F"/>
<ellipse cx="1740.57" cy="2555.13" rx="3.04133" ry="1.15021" transform="rotate(90 1740.57 2555.13)" fill="#6F6F6F"/>
<ellipse cx="2.21631" cy="1.7809" rx="2.21631" ry="1.7809" transform="matrix(0.250135 0.968211 -0.911387 0.41155 687.564 1239.87)" fill="#6F6F6F"/>
<ellipse cx="338.474" cy="2758.9" rx="3.04133" ry="2.30041" transform="rotate(90 338.474 2758.9)" fill="#6F6F6F"/>
<ellipse cx="1.97196" cy="2.04817" rx="1.97196" ry="2.04817" transform="matrix(-0.656444 0.754375 -0.549367 -0.835581 1001.86 2724.99)" fill="#6F6F6F"/>
<ellipse cx="1.83425" cy="2.17236" rx="1.83425" ry="2.17236" transform="matrix(-0.840449 0.541891 -0.346084 -0.938204 1382.14 2601.87)" fill="#6F6F6F"/>
<ellipse cx="2.21631" cy="1.7809" rx="2.21631" ry="1.7809" transform="matrix(0.250135 0.968211 -0.911387 0.41155 734.992 602.634)" fill="#6F6F6F"/>
<ellipse cx="333.873" cy="1127.99" rx="2.281" ry="1.15021" transform="rotate(90 333.873 1127.99)" fill="#6F6F6F"/>
<ellipse cx="1887.8" cy="541.01" rx="2.281" ry="1.15021" transform="rotate(90 1887.8 541.01)" fill="#6F6F6F"/>
<ellipse cx="1870.55" cy="591.192" rx="2.281" ry="1.15021" transform="rotate(90 1870.55 591.192)" fill="#6F6F6F"/>
<ellipse cx="1095.31" cy="108.382" rx="1.52066" ry="1.15021" transform="rotate(90 1095.31 108.382)" fill="#6F6F6F"/>
<ellipse cx="2.21631" cy="1.7809" rx="2.21631" ry="1.7809" transform="matrix(0.250135 0.968211 -0.911387 0.41155 738.69 876.526)" fill="#6F6F6F"/>
<ellipse cx="475.923" cy="2437.28" rx="2.281" ry="1.72531" transform="rotate(90 475.923 2437.28)" fill="#6F6F6F"/>
<ellipse cx="839.963" cy="312.151" rx="1.52066" ry="2.30041" transform="rotate(90 839.963 312.151)" fill="#6F6F6F"/>
<ellipse cx="310.868" cy="865.672" rx="3.04133" ry="1.15021" transform="rotate(90 310.868 865.672)" fill="#6F6F6F"/>
<ellipse cx="575.991" cy="550.135" rx="2.281" ry="1.72531" transform="rotate(90 575.991 550.135)" fill="#6F6F6F"/>
<ellipse cx="47.4716" cy="1103.66" rx="2.281" ry="2.30041" transform="rotate(90 47.4716 1103.66)" fill="#6F6F6F"/>
<ellipse cx="3.32446" cy="3.5618" rx="3.32446" ry="3.5618" transform="matrix(0.250135 0.968211 -0.911387 0.41155 820.744 1292.35)" fill="#6F6F6F"/>
<ellipse cx="450.618" cy="2866.11" rx="3.80166" ry="4.02572" transform="rotate(90 450.618 2866.11)" fill="#6F6F6F"/>
<ellipse cx="2.95794" cy="4.09634" rx="2.95794" ry="4.09634" transform="matrix(-0.656444 0.754375 -0.549367 -0.835581 1015.28 2907.86)" fill="#6F6F6F"/>
<ellipse cx="2.75138" cy="4.34472" rx="2.75138" ry="4.34472" transform="matrix(-0.840449 0.541891 -0.346084 -0.938204 1359.31 2783.11)" fill="#6F6F6F"/>
<ellipse cx="244.732" cy="1818.37" rx="3.80166" ry="2.87551" transform="rotate(90 244.732 1818.37)" fill="#6F6F6F"/>
<ellipse cx="650.754" cy="2153.67" rx="1.52066" ry="1.72531" transform="rotate(90 650.754 2153.67)" fill="#6F6F6F"/>
<ellipse cx="3.37517" cy="3.47599" rx="3.37517" ry="3.47599" transform="matrix(-0.14432 0.989531 -0.969009 -0.247025 1400.8 498.266)" fill="#6F6F6F"/>
<ellipse cx="1875.72" cy="2485.18" rx="3.04133" ry="4.02572" transform="rotate(90 1875.72 2485.18)" fill="#6F6F6F"/>
<ellipse cx="3.32446" cy="3.5618" rx="3.32446" ry="3.5618" transform="matrix(0.250135 0.968211 -0.911387 0.41155 800.227 1114.72)" fill="#6F6F6F"/>
<ellipse cx="474.198" cy="2689.71" rx="2.281" ry="3.45062" transform="rotate(90 474.198 2689.71)" fill="#6F6F6F"/>
<ellipse cx="2.95794" cy="4.09634" rx="2.95794" ry="4.09634" transform="matrix(-0.656444 0.754375 -0.549367 -0.835581 1132 2815.79)" fill="#6F6F6F"/>
<ellipse cx="2.75138" cy="4.34472" rx="2.75138" ry="4.34472" transform="matrix(-0.840449 0.541891 -0.346084 -0.938204 1490.08 2734.11)" fill="#6F6F6F"/>
<ellipse cx="2.25011" cy="1.73799" rx="2.25011" ry="1.73799" transform="matrix(-0.14432 0.989531 -0.969009 -0.247025 1838.45 695.279)" fill="#6F6F6F"/>
<ellipse cx="2.21631" cy="1.7809" rx="2.21631" ry="1.7809" transform="matrix(0.250135 0.968211 -0.911387 0.41155 891.203 1768.53)" fill="#6F6F6F"/>
<ellipse cx="2.25011" cy="1.73799" rx="2.25011" ry="1.73799" transform="matrix(-0.14432 0.989531 -0.969009 -0.247025 1323.15 443.831)" fill="#6F6F6F"/>
<ellipse cx="1793.48" cy="2450.2" rx="3.04133" ry="2.30041" transform="rotate(90 1793.48 2450.2)" fill="#6F6F6F"/>
<ellipse cx="2.21631" cy="1.7809" rx="2.21631" ry="1.7809" transform="matrix(0.250135 0.968211 -0.911387 0.41155 712.379 1118.44)" fill="#6F6F6F"/>
<ellipse cx="391.958" cy="2653.97" rx="3.04133" ry="1.72531" transform="rotate(90 391.958 2653.97)" fill="#6F6F6F"/>
<ellipse cx="1.97196" cy="2.04817" rx="1.97196" ry="2.04817" transform="matrix(-0.656444 0.754375 -0.549367 -0.835581 1096.28 2709.62)" fill="#6F6F6F"/>
<ellipse cx="2.14286" cy="1.86863" rx="2.14286" ry="1.86863" transform="matrix(-0.400202 0.916427 -0.794895 -0.606746 1204.56 2334.06)" fill="#6F6F6F"/>
<ellipse cx="522.506" cy="140.315" rx="1.52066" ry="2.30041" transform="rotate(90 522.506 140.315)" fill="#6F6F6F"/>
<ellipse cx="2.25011" cy="1.73799" rx="2.25011" ry="1.73799" transform="matrix(-0.14432 0.989531 -0.969009 -0.247025 1417.68 1280.82)" fill="#6F6F6F"/>
<ellipse cx="386.782" cy="2377.97" rx="2.281" ry="2.30041" transform="rotate(90 386.782 2377.97)" fill="#6F6F6F"/>
<ellipse cx="2.21631" cy="1.7809" rx="2.21631" ry="1.7809" transform="matrix(0.250135 0.968211 -0.911387 0.41155 1108.78 1782.9)" fill="#6F6F6F"/>
<ellipse cx="2.25011" cy="1.73799" rx="2.25011" ry="1.73799" transform="matrix(-0.14432 0.989531 -0.969009 -0.247025 1850.33 649.81)" fill="#6F6F6F"/>
<ellipse cx="1081.5" cy="150.2" rx="3.80166" ry="2.30041" transform="rotate(90 1081.5 150.2)" fill="#6F6F6F"/>
<ellipse cx="3.32446" cy="1.7809" rx="3.32446" ry="1.7809" transform="matrix(0.250135 0.968211 -0.911387 0.41155 735.685 921.015)" fill="#6F6F6F"/>
<ellipse cx="462.695" cy="2479.1" rx="3.04133" ry="1.15021" transform="rotate(90 462.695 2479.1)" fill="#6F6F6F"/>
<ellipse cx="3.32446" cy="1.7809" rx="3.32446" ry="1.7809" transform="matrix(0.250135 0.968211 -0.911387 0.41155 646.578 407.732)" fill="#6F6F6F"/>
<ellipse cx="297.641" cy="907.491" rx="3.80166" ry="1.72531" transform="rotate(90 297.641 907.491)" fill="#6F6F6F"/>
<ellipse cx="1911.95" cy="275.655" rx="3.04133" ry="1.15021" transform="rotate(90 1911.95 275.655)" fill="#6F6F6F"/>
<ellipse cx="2.21631" cy="2.67135" rx="2.21631" ry="2.67135" transform="matrix(0.250135 0.968211 -0.911387 0.41155 859.085 970.724)" fill="#6F6F6F"/>
<ellipse cx="565.639" cy="2577.18" rx="2.281" ry="2.87551" transform="rotate(90 565.639 2577.18)" fill="#6F6F6F"/>
<ellipse cx="360.902" cy="1529.44" rx="2.281" ry="2.87551" transform="rotate(90 360.902 1529.44)" fill="#6F6F6F"/>
<ellipse cx="2.25011" cy="1.73799" rx="2.25011" ry="1.73799" transform="matrix(-0.14432 0.989531 -0.969009 -0.247025 1356.83 452.417)" fill="#6F6F6F"/>
<ellipse cx="1827.99" cy="2450.2" rx="3.04133" ry="2.30041" transform="rotate(90 1827.99 2450.2)" fill="#6F6F6F"/>
<ellipse cx="2.21631" cy="1.7809" rx="2.21631" ry="1.7809" transform="matrix(0.250135 0.968211 -0.911387 0.41155 744.841 1103.78)" fill="#6F6F6F"/>
<ellipse cx="426.464" cy="2653.97" rx="3.04133" ry="1.72531" transform="rotate(90 426.464 2653.97)" fill="#6F6F6F"/>
<ellipse cx="1.97196" cy="2.04817" rx="1.97196" ry="2.04817" transform="matrix(-0.656444 0.754375 -0.549367 -0.835581 1118.79 2743.85)" fill="#6F6F6F"/>
<ellipse cx="2.14286" cy="1.86863" rx="2.14286" ry="1.86863" transform="matrix(-0.400202 0.916427 -0.794895 -0.606746 1234.27 2356.73)" fill="#6F6F6F"/>
<ellipse cx="2.25011" cy="1.73799" rx="2.25011" ry="1.73799" transform="matrix(-0.14432 0.989531 -0.969009 -0.247025 1454.73 1290.26)" fill="#6F6F6F"/>
<ellipse cx="424.164" cy="2377.97" rx="2.281" ry="1.72531" transform="rotate(90 424.164 2377.97)" fill="#6F6F6F"/>
<ellipse cx="2.21631" cy="1.7809" rx="2.21631" ry="1.7809" transform="matrix(0.250135 0.968211 -0.911387 0.41155 1144.49 1766.77)" fill="#6F6F6F"/>
<ellipse cx="2.21631" cy="1.7809" rx="2.21631" ry="1.7809" transform="matrix(0.250135 0.968211 -0.911387 0.41155 893.17 955.333)" fill="#6F6F6F"/>
<ellipse cx="1.83425" cy="2.17236" rx="1.83425" ry="2.17236" transform="matrix(-0.840449 0.541891 -0.346084 -0.938204 1014.51 2629.52)" fill="#6F6F6F"/>
<ellipse cx="1.72711" cy="2.25848" rx="1.72711" ry="2.25848" transform="matrix(-0.98374 -0.179597 0.103884 -0.994589 1110.08 2900.17)" fill="#6F6F6F"/>
<ellipse cx="397.709" cy="1529.44" rx="2.281" ry="1.72531" transform="rotate(90 397.709 1529.44)" fill="#6F6F6F"/>
<ellipse cx="3.37517" cy="3.47599" rx="3.37517" ry="3.47599" transform="matrix(-0.14432 0.989531 -0.969009 -0.247025 1362.43 557.764)" fill="#6F6F6F"/>
<ellipse cx="1846.39" cy="2554.37" rx="3.80166" ry="3.45062" transform="rotate(90 1846.39 2554.37)" fill="#6F6F6F"/>
<ellipse cx="3.32446" cy="3.5618" rx="3.32446" ry="3.5618" transform="matrix(0.250135 0.968211 -0.911387 0.41155 789.265 1191.55)" fill="#6F6F6F"/>
<ellipse cx="444.867" cy="2758.14" rx="3.80166" ry="4.02572" transform="rotate(90 444.867 2758.14)" fill="#6F6F6F"/>
<ellipse cx="2.95794" cy="4.09634" rx="2.95794" ry="4.09634" transform="matrix(-0.656444 0.754375 -0.549367 -0.835581 1074.04 2831.33)" fill="#6F6F6F"/>
<ellipse cx="2.75138" cy="4.34472" rx="2.75138" ry="4.34472" transform="matrix(-0.840449 0.541891 -0.346084 -0.938204 1431.05 2729.28)" fill="#6F6F6F"/>
<ellipse cx="2.25011" cy="1.73799" rx="2.25011" ry="1.73799" transform="matrix(-0.14432 0.989531 -0.969009 -0.247025 1325.87 449.142)" fill="#6F6F6F"/>
<ellipse cx="1796.93" cy="2454.77" rx="1.52066" ry="1.15021" transform="rotate(90 1796.93 2454.77)" fill="#6F6F6F"/>
<ellipse cx="2.21631" cy="1.7809" rx="2.21631" ry="1.7809" transform="matrix(0.250135 0.968211 -0.911387 0.41155 716.734 1121.27)" fill="#6F6F6F"/>
<ellipse cx="395.408" cy="2658.54" rx="1.52066" ry="1.72531" transform="rotate(90 395.408 2658.54)" fill="#6F6F6F"/>
<ellipse cx="1.97196" cy="2.04817" rx="1.97196" ry="2.04817" transform="matrix(-0.656444 0.754375 -0.549367 -0.835581 1095.95 2716.02)" fill="#6F6F6F"/>
<ellipse cx="2.14286" cy="1.86863" rx="2.14286" ry="1.86863" transform="matrix(-0.400202 0.916427 -0.794895 -0.606746 1205.82 2340.25)" fill="#6F6F6F"/>
<ellipse cx="2.25011" cy="1.73799" rx="2.25011" ry="1.73799" transform="matrix(-0.14432 0.989531 -0.969009 -0.247025 1821.14 730.125)" fill="#6F6F6F"/>
<ellipse cx="2.21631" cy="1.7809" rx="2.21631" ry="1.7809" transform="matrix(0.250135 0.968211 -0.911387 0.41155 889.265 1810.14)" fill="#6F6F6F"/>
<ellipse cx="2.25011" cy="1.73799" rx="2.25011" ry="1.73799" transform="matrix(-0.14432 0.989531 -0.969009 -0.247025 1420.4 1286.13)" fill="#6F6F6F"/>
<ellipse cx="390.233" cy="2381.77" rx="1.52066" ry="1.15021" transform="rotate(90 390.233 2381.77)" fill="#6F6F6F"/>
<ellipse cx="2.21631" cy="1.7809" rx="2.21631" ry="1.7809" transform="matrix(0.250135 0.968211 -0.911387 0.41155 863.44 973.55)" fill="#6F6F6F"/>
<ellipse cx="570.24" cy="2581.74" rx="2.281" ry="1.72531" transform="rotate(90 570.24 2581.74)" fill="#6F6F6F"/>
<ellipse cx="364.928" cy="1534" rx="2.281" ry="1.15021" transform="rotate(90 364.928 1534)" fill="#6F6F6F"/>
<ellipse cx="2.25011" cy="1.73799" rx="2.25011" ry="1.73799" transform="matrix(-0.14432 0.989531 -0.969009 -0.247025 1446.91 888.752)" fill="#6F6F6F"/>
<ellipse cx="359.177" cy="1984.88" rx="1.52066" ry="1.15021" transform="rotate(90 359.177 1984.88)" fill="#6F6F6F"/>
<ellipse cx="1901.03" cy="1813.05" rx="1.52066" ry="1.72531" transform="rotate(90 1901.03 1813.05)" fill="#6F6F6F"/>
<ellipse cx="2.21631" cy="1.7809" rx="2.21631" ry="1.7809" transform="matrix(0.250135 0.968211 -0.911387 0.41155 1084.29 1379.42)" fill="#6F6F6F"/>
<ellipse cx="2.20174" cy="1.79889" rx="2.20174" ry="1.79889" transform="matrix(0.28488 0.958563 -0.887411 0.46098 1264.67 1398.03)" fill="#6F6F6F"/>
<ellipse cx="1642.81" cy="2623.56" rx="1.52066" ry="1.15021" transform="rotate(90 1642.81 2623.56)" fill="#6F6F6F"/>
<ellipse cx="1810.74" cy="2319.43" rx="3.04133" ry="2.30041" transform="rotate(90 1810.74 2319.43)" fill="#6F6F6F"/>
<ellipse cx="2.25011" cy="1.73799" rx="2.25011" ry="1.73799" transform="matrix(-0.14432 0.989531 -0.969009 -0.247025 1493.04 189.233)" fill="#6F6F6F"/>
<ellipse cx="2.21631" cy="1.7809" rx="2.21631" ry="1.7809" transform="matrix(0.250135 0.968211 -0.911387 0.41155 764.22 785.924)" fill="#6F6F6F"/>
<ellipse cx="522.506" cy="2362.01" rx="3.04133" ry="2.30041" transform="rotate(90 522.506 2362.01)" fill="#6F6F6F"/>
<ellipse cx="2.20174" cy="1.79889" rx="2.20174" ry="1.79889" transform="matrix(0.28488 0.958563 -0.887411 0.46098 1299.79 1379.78)" fill="#6F6F6F"/>
<ellipse cx="1668.11" cy="2623.56" rx="1.52066" ry="1.15021" transform="rotate(90 1668.11 2623.56)" fill="#6F6F6F"/>
<ellipse cx="1848.12" cy="2319.43" rx="3.04133" ry="1.72531" transform="rotate(90 1848.12 2319.43)" fill="#6F6F6F"/>
<ellipse cx="1.72668" cy="2.25881" rx="1.72668" ry="2.25881" transform="matrix(0.984332 0.176325 -0.10195 0.994789 1143.3 1231.29)" fill="#6F6F6F"/>
<ellipse cx="115.908" cy="2287.49" rx="3.04133" ry="1.72531" transform="rotate(90 115.908 2287.49)" fill="#6F6F6F"/>
<ellipse cx="1657.76" cy="2114.14" rx="1.52066" ry="2.30041" transform="rotate(90 1657.76 2114.14)" fill="#6F6F6F"/>
<ellipse cx="1.78655" cy="2.21175" rx="1.78655" ry="2.21175" transform="matrix(0.90384 0.427871 -0.261418 0.965226 1052.78 1453.17)" fill="#6F6F6F"/>
<ellipse cx="2.20174" cy="2.69833" rx="2.20174" ry="2.69833" transform="matrix(0.28488 0.958563 -0.887411 0.46098 1270.71 1399.76)" fill="#6F6F6F"/>
<ellipse cx="1814.76" cy="2323.99" rx="1.52066" ry="1.72531" transform="rotate(90 1814.76 2323.99)" fill="#6F6F6F"/>
<ellipse cx="2.21631" cy="1.7809" rx="2.21631" ry="1.7809" transform="matrix(0.250135 0.968211 -0.911387 0.41155 914.566 610.205)" fill="#6F6F6F"/>
<ellipse cx="301.092" cy="2891.2" rx="1.52066" ry="1.72531" transform="rotate(90 301.092 2891.2)" fill="#6F6F6F"/>
<ellipse cx="1.97196" cy="2.04817" rx="1.97196" ry="2.04817" transform="matrix(-0.656444 0.754375 -0.549367 -0.835581 902.026 2773.62)" fill="#6F6F6F"/>
<ellipse cx="1.83425" cy="2.17236" rx="1.83425" ry="2.17236" transform="matrix(-0.840449 0.541891 -0.346084 -0.938204 1276.19 2614.69)" fill="#6F6F6F"/>
<ellipse cx="502.378" cy="1212.38" rx="1.52066" ry="1.72531" transform="rotate(90 502.378 1212.38)" fill="#6F6F6F"/>
<ellipse cx="179.745" cy="2813.64" rx="3.04133" ry="1.15021" transform="rotate(90 179.745 2813.64)" fill="#6F6F6F"/>
<ellipse cx="2.23484" cy="1.75759" rx="2.23484" ry="1.75759" transform="matrix(-0.198634 0.980074 -0.942602 -0.333917 691.154 2770.46)" fill="#6F6F6F"/>
<ellipse cx="2.14286" cy="1.86863" rx="2.14286" ry="1.86863" transform="matrix(-0.400202 0.916427 -0.794895 -0.606746 960.347 2330.93)" fill="#6F6F6F"/>
<ellipse cx="1.72711" cy="2.25848" rx="1.72711" ry="2.25848" transform="matrix(-0.98374 -0.179597 0.103884 -0.994589 1408.05 2931.68)" fill="#6F6F6F"/>
<ellipse cx="923.927" cy="234.596" rx="3.04133" ry="1.15021" transform="rotate(90 923.927 234.596)" fill="#6F6F6F"/>
<ellipse cx="395.408" cy="788.118" rx="3.04133" ry="1.72531" transform="rotate(90 395.408 788.118)" fill="#6F6F6F"/>
<ellipse cx="1849.84" cy="117.506" rx="1.52066" ry="1.15021" transform="rotate(90 1849.84 117.506)" fill="#6F6F6F"/>
<ellipse cx="543.21" cy="688.515" rx="2.281" ry="1.15021" transform="rotate(90 543.21 688.515)" fill="#6F6F6F"/>
<ellipse cx="14.6907" cy="1241.28" rx="3.04133" ry="1.72531" transform="rotate(90 14.6907 1241.28)" fill="#6F6F6F"/>
<ellipse cx="697.337" cy="218.63" rx="2.281" ry="1.15021" transform="rotate(90 697.337 218.63)" fill="#6F6F6F"/>
<ellipse cx="2.25011" cy="1.73799" rx="2.25011" ry="1.73799" transform="matrix(-0.14432 0.989531 -0.969009 -0.247025 1208.67 1707.88)" fill="#6F6F6F"/>
<ellipse cx="2.25011" cy="1.73799" rx="2.25011" ry="1.73799" transform="matrix(-0.14432 0.989531 -0.969009 -0.247025 1684.16 651.329)" fill="#6F6F6F"/>
<ellipse cx="1.99191" cy="2.02878" rx="1.99191" ry="2.02878" transform="matrix(0.629041 0.777372 -0.577306 0.816528 653.629 271.178)" fill="#6F6F6F"/>
<ellipse cx="2.20174" cy="1.79889" rx="2.20174" ry="1.79889" transform="matrix(0.28488 0.958563 -0.887411 0.46098 1355.15 1392.44)" fill="#6F6F6F"/>
<ellipse cx="1896.43" cy="2357.44" rx="1.52066" ry="1.72531" transform="rotate(90 1896.43 2357.44)" fill="#6F6F6F"/>
<ellipse cx="3.32446" cy="3.5618" rx="3.32446" ry="3.5618" transform="matrix(0.250135 0.968211 -0.911387 0.41155 995.197 1062.62)" fill="#6F6F6F"/>
<ellipse cx="2.75138" cy="4.34472" rx="2.75138" ry="4.34472" transform="matrix(-0.840449 0.541891 -0.346084 -0.938204 946.671 2776.69)" fill="#6F6F6F"/>
<ellipse cx="2.59067" cy="4.51695" rx="2.59067" ry="4.51695" transform="matrix(-0.98374 -0.179597 0.103884 -0.994589 991.723 2972.42)" fill="#6F6F6F"/>
<ellipse cx="466.146" cy="1676.95" rx="3.80166" ry="3.45062" transform="rotate(90 466.146 1676.95)" fill="#6F6F6F"/>
<ellipse cx="3.32446" cy="3.5618" rx="3.32446" ry="3.5618" transform="matrix(0.250135 0.968211 -0.911387 0.41155 976.102 848.394)" fill="#6F6F6F"/>
<ellipse cx="2.95794" cy="4.09634" rx="2.95794" ry="4.09634" transform="matrix(-0.656444 0.754375 -0.549367 -0.835581 758.338 2938.75)" fill="#6F6F6F"/>
<ellipse cx="2.75138" cy="4.34472" rx="2.75138" ry="4.34472" transform="matrix(-0.840449 0.541891 -0.346084 -0.938204 1105.07 2725.02)" fill="#6F6F6F"/>
<ellipse cx="2.59067" cy="4.51695" rx="2.59067" ry="4.51695" transform="matrix(-0.98374 -0.179597 0.103884 -0.994589 1145.04 3046.19)" fill="#6F6F6F"/>
<ellipse cx="500.077" cy="1465.57" rx="3.80166" ry="4.02572" transform="rotate(90 500.077 1465.57)" fill="#6F6F6F"/>
<ellipse cx="1.7794" cy="2.21751" rx="1.7794" ry="2.21751" transform="matrix(0.913385 0.407096 -0.247086 0.968994 1175.04 1187.51)" fill="#6F6F6F"/>
<ellipse cx="98.6555" cy="2373.41" rx="2.281" ry="1.72531" transform="rotate(90 98.6555 2373.41)" fill="#6F6F6F"/>
<ellipse cx="1640.51" cy="2200.81" rx="3.04133" ry="2.30041" transform="rotate(90 1640.51 2200.81)" fill="#6F6F6F"/>
<ellipse cx="1.78655" cy="2.21175" rx="1.78655" ry="2.21175" transform="matrix(0.90384 0.427871 -0.261418 0.965226 1108.36 1503.57)" fill="#6F6F6F"/>
<ellipse cx="2.25011" cy="1.73799" rx="2.25011" ry="1.73799" transform="matrix(-0.14432 0.989531 -0.969009 -0.247025 1452.71 1483.73)" fill="#6F6F6F"/>
<ellipse cx="2.25011" cy="1.73799" rx="2.25011" ry="1.73799" transform="matrix(-0.14432 0.989531 -0.969009 -0.247025 1475.73 224.08)" fill="#6F6F6F"/>
<ellipse cx="2.21631" cy="1.7809" rx="2.21631" ry="1.7809" transform="matrix(0.250135 0.968211 -0.911387 0.41155 762.283 827.535)" fill="#6F6F6F"/>
<ellipse cx="510.429" cy="2400.78" rx="2.281" ry="1.72531" transform="rotate(90 510.429 2400.78)" fill="#6F6F6F"/>
<ellipse cx="1784.28" cy="1029.9" rx="1.52066" ry="1.15021" transform="rotate(90 1784.28 1029.9)" fill="#6F6F6F"/>
<ellipse cx="1.72668" cy="2.25881" rx="1.72668" ry="2.25881" transform="matrix(0.984332 0.176325 -0.10195 0.994789 1170.59 1252.19)" fill="#6F6F6F"/>
<ellipse cx="103.831" cy="2325.51" rx="1.52066" ry="2.30041" transform="rotate(90 103.831 2325.51)" fill="#6F6F6F"/>
<ellipse cx="1645.68" cy="2153.67" rx="1.52066" ry="1.72531" transform="rotate(90 1645.68 2153.67)" fill="#6F6F6F"/>
<ellipse cx="1.78655" cy="2.21175" rx="1.78655" ry="2.21175" transform="matrix(0.90384 0.427871 -0.261418 0.965226 1076.18 1481.11)" fill="#6F6F6F"/>
<ellipse cx="3.32446" cy="1.7809" rx="3.32446" ry="1.7809" transform="matrix(0.250135 0.968211 -0.911387 0.41155 911.561 654.693)" fill="#6F6F6F"/>
<ellipse cx="287.289" cy="2931.49" rx="3.80166" ry="1.72531" transform="rotate(90 287.289 2931.49)" fill="#6F6F6F"/>
<ellipse cx="2.95794" cy="2.04817" rx="2.95794" ry="2.04817" transform="matrix(-0.656444 0.754375 -0.549367 -0.835581 869.723 2786.71)" fill="#6F6F6F"/>
<ellipse cx="2.75138" cy="2.17236" rx="2.75138" ry="2.17236" transform="matrix(-0.840449 0.541891 -0.346084 -0.938204 1242.43 2616.27)" fill="#6F6F6F"/>
<ellipse cx="488" cy="1254.96" rx="3.04133" ry="1.15021" transform="rotate(90 488 1254.96)" fill="#6F6F6F"/>
<ellipse cx="165.367" cy="2855.46" rx="3.80166" ry="1.72531" transform="rotate(90 165.367 2855.46)" fill="#6F6F6F"/>
<ellipse cx="3.35226" cy="1.75759" rx="3.35226" ry="1.75759" transform="matrix(-0.198634 0.980074 -0.942602 -0.333917 669.91 2805.19)" fill="#6F6F6F"/>
<ellipse cx="3.21429" cy="1.86863" rx="3.21429" ry="1.86863" transform="matrix(-0.400202 0.916427 -0.794895 -0.606746 933.027 2357.21)" fill="#6F6F6F"/>
<ellipse cx="2.59067" cy="2.25848" rx="2.59067" ry="2.25848" transform="matrix(-0.98374 -0.179597 0.103884 -0.994589 1379.35 2908.13)" fill="#6F6F6F"/>
<ellipse cx="2.25011" cy="1.73799" rx="2.25011" ry="1.73799" transform="matrix(-0.14432 0.989531 -0.969009 -0.247025 1486.39 1492.32)" fill="#6F6F6F"/>
<ellipse cx="911.85" cy="273.373" rx="2.281" ry="1.72531" transform="rotate(90 911.85 273.373)" fill="#6F6F6F"/>
<ellipse cx="383.331" cy="826.895" rx="2.281" ry="1.15021" transform="rotate(90 383.331 826.895)" fill="#6F6F6F"/>
<ellipse cx="2.21631" cy="1.7809" rx="2.21631" ry="1.7809" transform="matrix(0.250135 0.968211 -0.911387 0.41155 1193.91 1389.82)" fill="#6F6F6F"/>
<ellipse cx="1577.24" cy="2422.83" rx="1.52066" ry="2.30041" transform="rotate(90 1577.24 2422.83)" fill="#6F6F6F"/>
<ellipse cx="528.832" cy="730.333" rx="3.04133" ry="1.72531" transform="rotate(90 528.832 730.333)" fill="#6F6F6F"/>
<ellipse cx="1.46308" cy="1283.09" rx="3.80166" ry="1.15021" transform="rotate(90 1.46308 1283.09)" fill="#6F6F6F"/>
<ellipse cx="1.81982" cy="2.18446" rx="1.81982" ry="2.18446" transform="matrix(0.85959 0.510985 -0.321984 0.946745 514.796 462.96)" fill="#6F6F6F"/>
<ellipse cx="2.25011" cy="1.73799" rx="2.25011" ry="1.73799" transform="matrix(-0.14432 0.989531 -0.969009 -0.247025 1155.5 1832.88)" fill="#6F6F6F"/>
<ellipse cx="2.25011" cy="1.73799" rx="2.25011" ry="1.73799" transform="matrix(-0.14432 0.989531 -0.969009 -0.247025 1666.85 686.174)" fill="#6F6F6F"/>
<ellipse cx="546.086" cy="1731.69" rx="2.281" ry="1.72531" transform="rotate(90 546.086 1731.69)" fill="#6F6F6F"/>
<ellipse cx="1.99191" cy="2.02878" rx="1.99191" ry="2.02878" transform="matrix(0.629041 0.777372 -0.577306 0.816528 666.731 309.097)" fill="#6F6F6F"/>
<ellipse cx="3.32446" cy="1.7809" rx="3.32446" ry="1.7809" transform="matrix(0.250135 0.968211 -0.911387 0.41155 989.499 1110.72)" fill="#6F6F6F"/>
<ellipse cx="544.36" cy="2647.13" rx="2.281" ry="1.15021" transform="rotate(90 544.36 2647.13)" fill="#6F6F6F"/>
<ellipse cx="2.75138" cy="2.17236" rx="2.75138" ry="2.17236" transform="matrix(-0.840449 0.541891 -0.346084 -0.938204 909.862 2775.2)" fill="#6F6F6F"/>
<ellipse cx="2.59067" cy="2.25848" rx="2.59067" ry="2.25848" transform="matrix(-0.98374 -0.179597 0.103884 -0.994589 961.787 2944.06)" fill="#6F6F6F"/>
<ellipse cx="450.618" cy="1719.52" rx="3.80166" ry="1.72531" transform="rotate(90 450.618 1719.52)" fill="#6F6F6F"/>
<ellipse cx="2.25011" cy="1.73799" rx="2.25011" ry="1.73799" transform="matrix(-0.14432 0.989531 -0.969009 -0.247025 1700.54 694.761)" fill="#6F6F6F"/>
<ellipse cx="580.592" cy="1731.69" rx="2.281" ry="1.72531" transform="rotate(90 580.592 1731.69)" fill="#6F6F6F"/>
<ellipse cx="2.20174" cy="1.79889" rx="2.20174" ry="1.79889" transform="matrix(0.28488 0.958563 -0.887411 0.46098 1347.8 1466.92)" fill="#6F6F6F"/>
<ellipse cx="1868.82" cy="2422.83" rx="1.52066" ry="1.72531" transform="rotate(90 1868.82 2422.83)" fill="#6F6F6F"/>
<ellipse cx="1776.23" cy="1055.76" rx="1.52066" ry="1.15021" transform="rotate(90 1776.23 1055.76)" fill="#6F6F6F"/>
<ellipse cx="2.20174" cy="1.79889" rx="2.20174" ry="1.79889" transform="matrix(0.28488 0.958563 -0.887411 0.46098 1379.73 1450.33)" fill="#6F6F6F"/>
<ellipse cx="1903.33" cy="2422.83" rx="1.52066" ry="1.72531" transform="rotate(90 1903.33 2422.83)" fill="#6F6F6F"/>
<ellipse cx="3.32446" cy="3.5618" rx="3.32446" ry="3.5618" transform="matrix(0.250135 0.968211 -0.911387 0.41155 965.141 925.23)" fill="#6F6F6F"/>
<ellipse cx="2.75138" cy="4.34472" rx="2.75138" ry="4.34472" transform="matrix(-0.840449 0.541891 -0.346084 -0.938204 1046.04 2720.19)" fill="#6F6F6F"/>
<ellipse cx="2.59067" cy="4.51695" rx="2.59067" ry="4.51695" transform="matrix(-0.98374 -0.179597 0.103884 -0.994589 1098.05 2998.7)" fill="#6F6F6F"/>
<ellipse cx="471.322" cy="1533.24" rx="3.04133" ry="2.87551" transform="rotate(90 471.322 1533.24)" fill="#6F6F6F"/>
<ellipse cx="2.25011" cy="1.73799" rx="2.25011" ry="1.73799" transform="matrix(-0.14432 0.989531 -0.969009 -0.247025 1689.54 1165.37)" fill="#6F6F6F"/>
<ellipse cx="637.527" cy="2196.25" rx="1.52066" ry="2.30041" transform="rotate(90 637.527 2196.25)" fill="#6F6F6F"/>
<ellipse cx="1.78655" cy="2.21175" rx="1.78655" ry="2.21175" transform="matrix(0.90384 0.427871 -0.261418 0.965226 1075.26 1471.04)" fill="#6F6F6F"/>
<ellipse cx="2.25011" cy="1.73799" rx="2.25011" ry="1.73799" transform="matrix(-0.14432 0.989531 -0.969009 -0.247025 1376.43 1048.61)" fill="#6F6F6F"/>
<ellipse cx="313.169" cy="2159.76" rx="3.04133" ry="2.30041" transform="rotate(90 313.169 2159.76)" fill="#6F6F6F"/>
<ellipse cx="1855.02" cy="1987.92" rx="3.04133" ry="1.72531" transform="rotate(90 1855.02 1987.92)" fill="#6F6F6F"/>
<ellipse cx="2.21631" cy="1.7809" rx="2.21631" ry="1.7809" transform="matrix(0.250135 0.968211 -0.911387 0.41155 1083.15 1564.44)" fill="#6F6F6F"/>
<ellipse cx="459.245" cy="400.349" rx="1.52066" ry="2.30041" transform="rotate(90 459.245 400.349)" fill="#6F6F6F"/>
<ellipse cx="1264.96" cy="1945.34" rx="3.04133" ry="1.72531" transform="rotate(90 1264.96 1945.34)" fill="#6F6F6F"/>
</svg>
